<?xml version="1.0" encoding="UTF-8"?>
<!DOCTYPE svg PUBLIC "-//W3C//DTD SVG 1.1//EN" "http://www.w3.org/Graphics/SVG/1.1/DTD/svg11.dtd">
<!-- Creator: CorelDRAW 2018 (64 Bit Versão de avaliação) -->
<svg xmlns="http://www.w3.org/2000/svg" xml:space="preserve" width="10.8372mm" height="10.8372mm" version="1.1" style="shape-rendering:geometricPrecision; text-rendering:geometricPrecision; image-rendering:optimizeQuality; fill-rule:evenodd; clip-rule:evenodd"
viewBox="0 0 486.82 486.82"
 xmlns:xlink="http://www.w3.org/1999/xlink">
 <defs>
  <style type="text/css">
   <![CDATA[
    .fil0 {fill:#B3B3B3}
    .fil1 {fill:#FEFEFE}
   ]]>
  </style>
 </defs>
 <g id="Camada_x0020_1">
  <metadata id="CorelCorpID_0Corel-Layer"/>
  <g id="_4835260784">
   <path class="fil0" d="M28.36 486.82c12.49,-13.02 75.36,-33.52 98.9,-45.44 21.4,-10.84 10.78,-17.36 20.1,-37.98 6.35,-14.05 5.46,-5.86 16.02,-12.79 0.86,-11.21 2.63,-22.04 3.87,-33.07 1.52,-13.63 -3.68,-18.97 -9.65,-26.79 -12.67,-16.61 -10.26,-35.92 -19.14,-54.22 -5.82,-11.98 -18.18,-44.17 -10.49,-59.13 5.84,-11.35 8.48,-4.33 8.22,-28.62 -0.13,-12.32 0.27,-24.39 0.54,-36.69 1.33,-58.74 7.32,-75.65 48.83,-97.98 30.78,-16.55 77.46,-29.57 118.21,-30.03 -3.05,9.65 -9.7,8.67 -12.85,20.25 8.17,12.68 24.04,14.48 45.8,41.57 15.7,19.53 20.32,36.74 15.98,68.15 -8.13,58.79 7.74,56.01 8.51,72.98 1.54,34.44 -11.55,46.41 -17.96,69.61 -8.2,29.65 -27.34,48.47 -21.64,85.53 1.89,12.26 5.52,10.77 8.62,13.65 4.4,4.09 9.91,24.42 12.23,32.08 3.85,12.67 9.99,13.58 24.54,19.02 16.38,6.11 86,33.02 91.44,39.91l28.38 0 0 -486.82 -486.82 0 0 486.82 28.36 0z"/>
   <path class="fil1" d="M458.44 486.82c-5.44,-6.89 -75.06,-33.8 -91.44,-39.91 -14.55,-5.43 -20.7,-6.34 -24.54,-19.02 -2.32,-7.66 -7.83,-27.99 -12.23,-32.08 -3.1,-2.88 -6.73,-1.39 -8.62,-13.65 -5.7,-37.05 13.44,-55.87 21.64,-85.53 6.41,-23.2 19.5,-35.17 17.96,-69.61 -0.76,-16.98 -16.64,-14.2 -8.51,-72.98 4.34,-31.41 -0.28,-48.62 -15.98,-68.15 -21.76,-27.09 -37.63,-28.88 -45.8,-41.57 3.15,-11.59 9.79,-10.6 12.85,-20.25 -40.75,0.46 -87.43,13.48 -118.21,30.03 -41.52,22.33 -47.5,39.24 -48.83,97.98 -0.28,12.3 -0.67,24.37 -0.54,36.69 0.26,24.29 -2.39,17.28 -8.22,28.62 -7.69,14.96 4.67,47.15 10.49,59.13 8.89,18.31 6.47,37.61 19.14,54.22 5.97,7.83 11.18,13.16 9.65,26.79 -1.24,11.03 -3.01,21.86 -3.87,33.07 -10.56,6.93 -9.67,-1.26 -16.02,12.79 -9.32,20.62 1.3,27.14 -20.1,37.98 -23.54,11.92 -86.41,32.42 -98.9,45.44l430.08 0z"/>
  </g>
 </g>
</svg>
